<svg xmlns="http://www.w3.org/2000/svg" width="15" height="16" viewBox="0 0 15 16">
  <metadata><?xpacket begin="﻿" id="W5M0MpCehiHzreSzNTczkc9d"?>
<x:xmpmeta xmlns:x="adobe:ns:meta/" x:xmptk="Adobe XMP Core 5.6-c142 79.160924, 2017/07/13-01:06:39        ">
   <rdf:RDF xmlns:rdf="http://www.w3.org/1999/02/22-rdf-syntax-ns#">
      <rdf:Description rdf:about=""/>
   </rdf:RDF>
</x:xmpmeta>
                                                                                                    
                                                                                                    
                                                                                                    
                                                                                                    
                                                                                                    
                                                                                                    
                                                                                                    
                                                                                                    
                                                                                                    
                                                                                                    
                                                                                                    
                                                                                                    
                                                                                                    
                                                                                                    
                                                                                                    
                                                                                                    
                                                                                                    
                                                                                                    
                                                                                                    
                                                                                                    
                           
<?xpacket end="w"?></metadata>
<defs>
    <style>
      .cls-1 {
        fill: #202020;
        fill-rule: evenodd;
      }
    </style>
  </defs>
  <path id="cart" class="cls-1" d="M1781.04,50.452h-1.44V52.22a1.147,1.147,0,0,1,.31.778,1.17,1.17,0,1,1-1.96-.859V50.452h-6.72v1.72a1.169,1.169,0,1,1-2,.826,1.135,1.135,0,0,1,.35-0.826v-1.72h-1.62a0.956,0.956,0,0,0-.96.952v8.643a0.956,0.956,0,0,0,.96.952h13.08a0.956,0.956,0,0,0,.96-0.952V51.4A0.957,0.957,0,0,0,1781.04,50.452Zm-2.26,3.027a0.477,0.477,0,0,1-.48-0.48V49.643a3.71,3.71,0,0,0-7.42,0V53a0.477,0.477,0,0,1-.48.481,0.484,0.484,0,0,1-.48-0.481V49.643a4.67,4.67,0,0,1,9.34,0V53A0.477,0.477,0,0,1,1778.78,53.478Z" transform="translate(-1767 -45)"/>
</svg>
