<svg xmlns="http://www.w3.org/2000/svg" width="10.156" height="17.906" viewBox="0 0 10.156 17.906">
  <metadata><?xpacket begin="﻿" id="W5M0MpCehiHzreSzNTczkc9d"?>
<x:xmpmeta xmlns:x="adobe:ns:meta/" x:xmptk="Adobe XMP Core 5.6-c142 79.160924, 2017/07/13-01:06:39        ">
   <rdf:RDF xmlns:rdf="http://www.w3.org/1999/02/22-rdf-syntax-ns#">
      <rdf:Description rdf:about=""/>
   </rdf:RDF>
</x:xmpmeta>
                                                                                                    
                                                                                                    
                                                                                                    
                                                                                                    
                                                                                                    
                                                                                                    
                                                                                                    
                                                                                                    
                                                                                                    
                                                                                                    
                                                                                                    
                                                                                                    
                                                                                                    
                                                                                                    
                                                                                                    
                                                                                                    
                                                                                                    
                                                                                                    
                                                                                                    
                                                                                                    
                           
<?xpacket end="w"?></metadata>
<defs>
    <style>
      .cls-1 {
        fill: #171717;
        fill-rule: evenodd;
      }
    </style>
  </defs>
  <path id="fb" class="cls-1" d="M31.781,378l-2.438,0a4.177,4.177,0,0,0-4.509,4.4v2.031H22.383A0.374,0.374,0,0,0,22,384.8v2.943a0.374,0.374,0,0,0,.383.365h2.451v7.425a0.375,0.375,0,0,0,.383.365h3.2a0.375,0.375,0,0,0,.383-0.365v-7.425h2.866a0.374,0.374,0,0,0,.383-0.365V384.8a0.357,0.357,0,0,0-.112-0.258,0.392,0.392,0,0,0-.271-0.107H28.8v-1.722c0-.827.207-1.248,1.339-1.248h1.643a0.374,0.374,0,0,0,.383-0.365v-2.733A0.374,0.374,0,0,0,31.781,378Z" transform="translate(-22 -378)"/>
</svg>
