<svg width="25" height="25" viewBox="0 0 25 25" fill="none" xmlns="http://www.w3.org/2000/svg">
<path d="M14.3369 12.4717L24.6994 2.13688C24.9042 1.8984 25.0112 1.59162 24.9991 1.27787C24.9869 0.964117 24.8565 0.666492 24.6339 0.444469C24.4113 0.222446 24.1128 0.0923789 23.7982 0.08026C23.4837 0.068141 23.1761 0.174863 22.9369 0.379098L12.5744 10.7139L2.21193 0.366631C1.97655 0.131881 1.65731 0 1.32443 0C0.991552 0 0.672309 0.131881 0.436929 0.366631C0.20155 0.601381 0.0693147 0.919771 0.0693147 1.25176C0.0693147 1.58374 0.20155 1.90213 0.436929 2.13688L10.8119 12.4717L0.436929 22.8065C0.306077 22.9182 0.199802 23.0557 0.124773 23.2104C0.0497435 23.3651 0.00758086 23.5335 0.000931489 23.7052C-0.00571788 23.8769 0.023289 24.0481 0.0861322 24.2081C0.148975 24.3681 0.244298 24.5134 0.366117 24.6349C0.487935 24.7564 0.633619 24.8514 0.794026 24.9141C0.954432 24.9768 1.1261 25.0057 1.29825 24.9991C1.4704 24.9924 1.63931 24.9504 1.79439 24.8756C1.94947 24.8007 2.08737 24.6947 2.19943 24.5642L12.5744 14.2295L22.9369 24.5642C23.1761 24.7685 23.4837 24.8752 23.7982 24.8631C24.1128 24.851 24.4113 24.7209 24.6339 24.4989C24.8565 24.2768 24.9869 23.9792 24.9991 23.6655C25.0112 23.3517 24.9042 23.0449 24.6994 22.8065L14.3369 12.4717Z" fill="white"/>
</svg>
