<svg xmlns="http://www.w3.org/2000/svg" width="19.125" height="19" viewBox="0 0 19.125 19">
  <metadata><?xpacket begin="﻿" id="W5M0MpCehiHzreSzNTczkc9d"?>
<x:xmpmeta xmlns:x="adobe:ns:meta/" x:xmptk="Adobe XMP Core 5.6-c142 79.160924, 2017/07/13-01:06:39        ">
   <rdf:RDF xmlns:rdf="http://www.w3.org/1999/02/22-rdf-syntax-ns#">
      <rdf:Description rdf:about=""/>
   </rdf:RDF>
</x:xmpmeta>
                                                                                                    
                                                                                                    
                                                                                                    
                                                                                                    
                                                                                                    
                                                                                                    
                                                                                                    
                                                                                                    
                                                                                                    
                                                                                                    
                                                                                                    
                                                                                                    
                                                                                                    
                                                                                                    
                                                                                                    
                                                                                                    
                                                                                                    
                                                                                                    
                                                                                                    
                                                                                                    
                           
<?xpacket end="w"?></metadata>
<defs>
    <style>
      .cls-1 {
        fill: #fff;
        fill-rule: evenodd;
      }
    </style>
  </defs>
  <path id="_" data-name="" class="cls-1" d="M446.023,1881.28a4.926,4.926,0,0,1,1.795,1.78,4.828,4.828,0,0,1,0,4.88,4.953,4.953,0,0,1-1.795,1.79,4.971,4.971,0,0,1-4.915,0,4.93,4.93,0,0,1-1.8-1.79,4.821,4.821,0,0,1,0-4.88,4.9,4.9,0,0,1,1.8-1.78A4.905,4.905,0,0,1,446.023,1881.28Zm-0.193,6.47a3.16,3.16,0,0,0,0-4.5,3.223,3.223,0,0,0-4.53,0,3.163,3.163,0,0,0,0,4.5A3.2,3.2,0,0,0,445.83,1887.75Zm3.676-8.15a1.154,1.154,0,0,0-1.966.81,1.072,1.072,0,0,0,.342.8,1.1,1.1,0,0,0,.812.34,1.03,1.03,0,0,0,.79-0.34,1.291,1.291,0,0,0,.364-0.8A1.118,1.118,0,0,0,449.506,1879.6Zm3.633,5.9c0,1.84-.022,3.16-0.065,3.97a7.879,7.879,0,0,1-.363,2.1,4.9,4.9,0,0,1-1.175,1.85,5.116,5.116,0,0,1-1.859,1.17,7.942,7.942,0,0,1-2.116.36q-1.218.06-4,.06t-4-.06a7.143,7.143,0,0,1-2.115-.4,4.649,4.649,0,0,1-1.86-1.13,4.917,4.917,0,0,1-1.175-1.85,7.879,7.879,0,0,1-.363-2.1c-0.043-.81-0.064-2.13-0.064-3.97s0.021-3.16.064-3.97a7.952,7.952,0,0,1,.363-2.1,4.941,4.941,0,0,1,3.035-3.01,7.927,7.927,0,0,1,2.115-.36c0.812-.05,2.144-0.07,4-0.07s3.184,0.02,4,.07a7.942,7.942,0,0,1,2.116.36,4.943,4.943,0,0,1,3.034,3.01,8.6,8.6,0,0,1,.385,2.12C453.124,1882.35,453.139,1883.66,453.139,1885.5Zm-1.753,3.31c0.028-.62.043-1.5,0.043-2.63v-1.36c0-1.16-.015-2.04-0.043-2.63a8.39,8.39,0,0,0-.342-2.29,3.078,3.078,0,0,0-1.837-1.83,8.775,8.775,0,0,0-2.308-.34c-0.627-.03-1.511-0.04-2.65-0.04h-1.368c-1.14,0-2.023.01-2.649,0.04a9.191,9.191,0,0,0-2.308.34,3.074,3.074,0,0,0-1.838,1.83,8.39,8.39,0,0,0-.342,2.29c-0.029.62-.043,1.5-0.043,2.63v1.36c0,1.13.014,2.01,0.043,2.63a8.922,8.922,0,0,0,.342,2.3,3.241,3.241,0,0,0,1.838,1.82,9.191,9.191,0,0,0,2.308.34c0.626,0.03,1.509.04,2.649,0.04h1.368c1.168,0,2.051-.01,2.65-0.04a8.775,8.775,0,0,0,2.308-.34,3.226,3.226,0,0,0,1.837-1.82,8.922,8.922,0,0,0,.342-2.3h0Z" transform="translate(-434 -1876)"/>
</svg>
