<svg xmlns="http://www.w3.org/2000/svg" width="23" height="13.56" viewBox="0 0 23 13.56">
  <metadata><?xpacket begin="﻿" id="W5M0MpCehiHzreSzNTczkc9d"?>
<x:xmpmeta xmlns:x="adobe:ns:meta/" x:xmptk="Adobe XMP Core 5.6-c142 79.160924, 2017/07/13-01:06:39        ">
   <rdf:RDF xmlns:rdf="http://www.w3.org/1999/02/22-rdf-syntax-ns#">
      <rdf:Description rdf:about=""/>
   </rdf:RDF>
</x:xmpmeta>
                                                                                                    
                                                                                                    
                                                                                                    
                                                                                                    
                                                                                                    
                                                                                                    
                                                                                                    
                                                                                                    
                                                                                                    
                                                                                                    
                                                                                                    
                                                                                                    
                                                                                                    
                                                                                                    
                                                                                                    
                                                                                                    
                                                                                                    
                                                                                                    
                                                                                                    
                                                                                                    
                           
<?xpacket end="w"?></metadata>
<defs>
    <style>
      .cls-1 {
        fill: #fff;
        fill-rule: evenodd;
      }
    </style>
  </defs>
  <path id="_" data-name="" class="cls-1" d="M500.408,1881.77q-0.641,1.05-1.539,2.46c-0.512.73-.784,1.12-0.812,1.14a1.256,1.256,0,0,0-.256.6,0.862,0.862,0,0,0,.256.51l0.385,0.42q3.077,3.15,3.462,4.33a0.853,0.853,0,0,1-.107.79,0.942,0.942,0,0,1-.748.27h-2.522a1.344,1.344,0,0,1-.854-0.29,6.776,6.776,0,0,1-.919-0.92c-0.442-.49-0.834-0.91-1.175-1.25-1.14-1.07-1.981-1.61-2.522-1.61a0.539,0.539,0,0,0-.641.68,11.978,11.978,0,0,0-.043,1.31v1.11a0.738,0.738,0,0,1-.256.72,3.123,3.123,0,0,1-1.539.25,8.065,8.065,0,0,1-4.06-1.18,11.417,11.417,0,0,1-3.59-3.4,25.406,25.406,0,0,1-2.436-3.95,25.9,25.9,0,0,1-1.239-2.84,6.59,6.59,0,0,1-.3-1.49,0.7,0.7,0,0,1,.855-0.72h2.522a1.031,1.031,0,0,1,.705.21,1.733,1.733,0,0,1,.406.77,24.687,24.687,0,0,0,1.453,3.31,14.139,14.139,0,0,0,1.539,2.42,2.094,2.094,0,0,0,1.2.93,0.376,0.376,0,0,0,.363-0.19,1.741,1.741,0,0,0,.107-0.74v-3.7a3.058,3.058,0,0,0-.3-1.19,2.955,2.955,0,0,0-.427-0.65,1.04,1.04,0,0,1-.3-0.6,0.519,0.519,0,0,1,.192-0.4,0.673,0.673,0,0,1,.449-0.17h3.974a0.615,0.615,0,0,1,.535.21,1.3,1.3,0,0,1,.149.72v4.93a0.928,0.928,0,0,0,.128.55,0.4,0.4,0,0,0,.321.17,0.923,0.923,0,0,0,.449-0.15,3.363,3.363,0,0,0,.683-0.61,15.169,15.169,0,0,0,1.625-2.21,22.2,22.2,0,0,0,1.068-2.04l0.427-.85a1.073,1.073,0,0,1,1.069-.72h2.521q1.026,0,.77.93a8.129,8.129,0,0,1-1.026,2.13h0Z" transform="translate(-478.969 -1878.72)"/>
</svg>
