<svg xmlns="http://www.w3.org/2000/svg" width="23.344" height="16.32" viewBox="0 0 23.344 16.32">
  <metadata><?xpacket begin="﻿" id="W5M0MpCehiHzreSzNTczkc9d"?>
<x:xmpmeta xmlns:x="adobe:ns:meta/" x:xmptk="Adobe XMP Core 5.6-c142 79.160924, 2017/07/13-01:06:39        ">
   <rdf:RDF xmlns:rdf="http://www.w3.org/1999/02/22-rdf-syntax-ns#">
      <rdf:Description rdf:about=""/>
   </rdf:RDF>
</x:xmpmeta>
                                                                                                    
                                                                                                    
                                                                                                    
                                                                                                    
                                                                                                    
                                                                                                    
                                                                                                    
                                                                                                    
                                                                                                    
                                                                                                    
                                                                                                    
                                                                                                    
                                                                                                    
                                                                                                    
                                                                                                    
                                                                                                    
                                                                                                    
                                                                                                    
                                                                                                    
                                                                                                    
                           
<?xpacket end="w"?></metadata>
<defs>
    <style>
      .cls-1 {
        fill: #fff;
        fill-rule: evenodd;
      }
    </style>
  </defs>
  <path id="_" data-name="" class="cls-1" d="M548.96,1883.38L549,1885.5l-0.042,2.12a19.459,19.459,0,0,1-.428,3.53,3.049,3.049,0,0,1-2.094,2.04,31.15,31.15,0,0,1-5.214.42l-3.889.04-3.889-.04a31.126,31.126,0,0,1-5.214-.42,3.053,3.053,0,0,1-2.1-2.04,19.387,19.387,0,0,1-.427-3.53l-0.043-2.12c0-.62.014-1.33,0.043-2.12a18.958,18.958,0,0,1,.427-3.48,2.96,2.96,0,0,1,.77-1.32,2.924,2.924,0,0,1,1.325-.76,30.71,30.71,0,0,1,5.214-.43l3.889-.04,3.889,0.04a30.734,30.734,0,0,1,5.214.43,2.929,2.929,0,0,1,1.325.76,2.968,2.968,0,0,1,.769,1.32,19.029,19.029,0,0,1,.428,3.48h0Zm-7.907,2.12-6.112-3.44v6.92Z" transform="translate(-525.656 -1877.34)"/>
</svg>
