<svg id="Capa_1" data-name="Capa 1" width="19" height="16" xmlns="http://www.w3.org/2000/svg"  viewBox="0 0 625.98 514.41"><title>Vector Smart Object</title><g id="twitter"><path d="M606,114.16a13.83,13.83,0,0,0-16.14.32c-3.29,2.45-8.19,4.63-13.9,6.53,18.82-23.34,19.1-38.94,18.82-42.79A13.88,13.88,0,0,0,572.83,68a121.8,121.8,0,0,1-66.31,22.89,130.49,130.49,0,0,0-89.41-35.07c-72.5,0-131.48,59-131.48,131.46a130.11,130.11,0,0,0,.93,15.67c-121-3-219.1-117-220.09-118.21a13.86,13.86,0,0,0-22.55,2C13.13,139.31,25.7,189.18,46.8,224.06a13.87,13.87,0,0,0-20.44,12c-.9,55.3,24.36,88.45,49.83,107.75a13.88,13.88,0,0,0-8,16.94c17.72,57.12,59.32,78.54,88.52,86.55-33.48,23.61-74.9,29.14-106.36,29.14A219.31,219.31,0,0,1,16.28,474,13.87,13.87,0,0,0,5.53,498.75c63.15,47.48,139.4,57.45,192.25,57.45,41.78,0,70.8-6.11,72.27-6.42,271.31-63.36,281.62-306.62,281.19-350.95,50.85-46.72,59-65,60.23-69.51A13.84,13.84,0,0,0,606,114.16ZM527.9,182.6a13.85,13.85,0,0,0-4.52,11.24c.18,2.63,15,264.8-259.37,328.88-.26,0-27.6,5.75-66.24,5.75-36,0-83.66-4.92-129.13-24.88,41.63-2.66,92.68-15.44,129.41-56.06a13.9,13.9,0,0,0-10.38-23.17c-2.58,0-57.16-.66-84.49-51.4,12.65.4,24.12-1.47,32.62-5.34a13.88,13.88,0,0,0-2.87-26.2c-3-.64-65.79-14.95-77.12-81.23,9.84,3.76,21.83,6.36,33.42,4.66a13.87,13.87,0,0,0,7-24.29C93.42,238.2,33.49,186.13,59.53,118,94.43,153.41,189.42,236.82,304,230.37a13.88,13.88,0,0,0,12.65-17.29A103.81,103.81,0,0,1,417.12,83.54a103,103,0,0,1,73.95,31,13.89,13.89,0,0,0,9.66,4.13l2.13,0a146.69,146.69,0,0,0,44.49-7.14A203.9,203.9,0,0,1,524,132.36a13.87,13.87,0,0,0,9.57,24.79c2.25-.18,12.12-1,24.34-3.23C550.18,161.8,540.38,171.27,527.9,182.6Z" transform="translate(7 -48.78)" style="stroke:#000;stroke-miterlimit:10;stroke-width:14px"/></g></svg>