<svg xmlns="http://www.w3.org/2000/svg" width="21" height="17" viewBox="0 0 21 17"><g><g><path fill="#ff0036" d="M21.163 2.044a8.648 8.648 0 0 1-2.475.677A4.307 4.307 0 0 0 20.582.348a8.691 8.691 0 0 1-2.734 1.041A4.305 4.305 0 0 0 14.704.033c-2.38 0-4.308 1.92-4.308 4.29 0 .335.038.663.112.977A12.252 12.252 0 0 1 1.629.82a4.28 4.28 0 0 0 1.333 5.725 4.286 4.286 0 0 1-1.95-.537v.054a4.297 4.297 0 0 0 3.454 4.206 4.32 4.32 0 0 1-1.945.072 4.306 4.306 0 0 0 4.024 2.978 8.66 8.66 0 0 1-6.377 1.776 12.233 12.233 0 0 0 6.602 1.928c7.923 0 12.255-6.535 12.255-12.202 0-.186-.004-.372-.011-.555a8.762 8.762 0 0 0 2.149-2.22z"/></g></g></svg>