<svg xmlns="http://www.w3.org/2000/svg" width="18.75" height="19.187" viewBox="0 0 18.75 19.187">
  <metadata><?xpacket begin="﻿" id="W5M0MpCehiHzreSzNTczkc9d"?>
<x:xmpmeta xmlns:x="adobe:ns:meta/" x:xmptk="Adobe XMP Core 5.6-c142 79.160924, 2017/07/13-01:06:39        ">
   <rdf:RDF xmlns:rdf="http://www.w3.org/1999/02/22-rdf-syntax-ns#">
      <rdf:Description rdf:about=""/>
   </rdf:RDF>
</x:xmpmeta>
                                                                                                    
                                                                                                    
                                                                                                    
                                                                                                    
                                                                                                    
                                                                                                    
                                                                                                    
                                                                                                    
                                                                                                    
                                                                                                    
                                                                                                    
                                                                                                    
                                                                                                    
                                                                                                    
                                                                                                    
                                                                                                    
                                                                                                    
                                                                                                    
                                                                                                    
                                                                                                    
                           
<?xpacket end="w"?></metadata>
<defs>
    <style>
      .cls-1 {
        fill: #171717;
        fill-rule: evenodd;
      }
    </style>
  </defs>
  <path id="insta" class="cls-1" d="M35.575,560.822h-8.4A5.24,5.24,0,0,0,22,566.114v8.593A5.24,5.24,0,0,0,27.174,580h8.4a5.24,5.24,0,0,0,5.174-5.292v-8.593A5.24,5.24,0,0,0,35.575,560.822Zm3.511,13.885a3.556,3.556,0,0,1-3.511,3.591h-8.4a3.556,3.556,0,0,1-3.511-3.591v-8.593a3.556,3.556,0,0,1,3.511-3.591h8.4a3.556,3.556,0,0,1,3.511,3.591v8.593h0Zm-7.711-9.237a4.942,4.942,0,1,0,4.831,4.941A4.892,4.892,0,0,0,31.374,565.47Zm0,8.181a3.241,3.241,0,1,1,3.168-3.24A3.209,3.209,0,0,1,31.374,573.651Zm5.034-9.624a1.209,1.209,0,0,0-.862.365,1.266,1.266,0,0,0,0,1.765,1.2,1.2,0,0,0,1.725,0,1.269,1.269,0,0,0,0-1.765A1.209,1.209,0,0,0,36.408,564.027Z" transform="translate(-22 -560.813)"/>
</svg>
