<svg xmlns="http://www.w3.org/2000/svg" width="16.938" height="14.344" viewBox="0 0 16.938 14.344">
  <metadata><?xpacket begin="﻿" id="W5M0MpCehiHzreSzNTczkc9d"?>
<x:xmpmeta xmlns:x="adobe:ns:meta/" x:xmptk="Adobe XMP Core 5.6-c142 79.160924, 2017/07/13-01:06:39        ">
   <rdf:RDF xmlns:rdf="http://www.w3.org/1999/02/22-rdf-syntax-ns#">
      <rdf:Description rdf:about=""/>
   </rdf:RDF>
</x:xmpmeta>
                                                                                                    
                                                                                                    
                                                                                                    
                                                                                                    
                                                                                                    
                                                                                                    
                                                                                                    
                                                                                                    
                                                                                                    
                                                                                                    
                                                                                                    
                                                                                                    
                                                                                                    
                                                                                                    
                                                                                                    
                                                                                                    
                                                                                                    
                                                                                                    
                                                                                                    
                                                                                                    
                           
<?xpacket end="w"?></metadata>
<defs>
    <style>
      .cls-1 {
        fill: #171717;
        fill-rule: evenodd;
      }
    </style>
  </defs>
  <path id="tw" class="cls-1" d="M38.887,440.654a6.815,6.815,0,0,1-2.209.877,3.4,3.4,0,0,0-2.536-1.142A3.548,3.548,0,0,0,30.666,444a3.777,3.777,0,0,0,.09.824,9.749,9.749,0,0,1-7.164-3.778,3.7,3.7,0,0,0-.47,1.817,3.653,3.653,0,0,0,1.546,3.009,3.352,3.352,0,0,1-1.574-.454v0.046a3.585,3.585,0,0,0,2.788,3.545,3.348,3.348,0,0,1-1.57.062,3.5,3.5,0,0,0,3.246,2.511,6.807,6.807,0,0,1-4.316,1.547,6.879,6.879,0,0,1-.829-0.05,9.561,9.561,0,0,0,5.328,1.625c6.393,0,9.888-5.509,9.888-10.287l-0.011-.469a7.156,7.156,0,0,0,1.737-1.869,6.744,6.744,0,0,1-2,.57A3.617,3.617,0,0,0,38.887,440.654Z" transform="translate(-22.406 -440.375)"/>
</svg>
