<svg xmlns="http://www.w3.org/2000/svg" width="97" height="11" viewBox="0 0 97 11"><g><g><g><path fill="#34404b" d="M97 1.826v7.348C97 10.178 96.189 11 95.197 11h-7.253c-.991 0-1.802-.822-1.802-1.826V1.826c0-1.004.81-1.826 1.802-1.826h7.253C96.19 0 97 .822 97 1.826zM89.503 5.5c0 1.155.928 2.095 2.068 2.095 1.14 0 2.068-.94 2.068-2.095 0-.24-.04-.472-.115-.688h-3.906a2.108 2.108 0 0 0-.115.688zm6.14-.688H94.58c.05.222.075.452.075.688 0 1.723-1.384 3.126-3.085 3.126-1.702 0-3.086-1.403-3.086-3.126 0-.236.026-.466.076-.688h-1.062v4.125c0 .379.305.688.679.688h6.786c.373 0 .679-.31.679-.688zm0-3.093a.343.343 0 0 0-.34-.344h-.678a.343.343 0 0 0-.34.344v.687c0 .189.153.344.34.344h.678c.187 0 .34-.155.34-.344z"/></g><g><path fill="#34404b" d="M63.908.55h-1.02c.677.276 1.037 1.111 1.037 1.968 0 .72-.376 1.34-.909 1.78-.52.429-.618.609-.618.974 0 .312.557.842.848 1.06.85.636 1.125 1.227 1.125 2.214 0 1.23-1.125 2.454-3.164 2.454-1.788 0-3.297-.77-3.297-2 0-1.25 1.377-2.454 3.165-2.454.194 0 .373-.006.558-.006-.245-.252-.438-.56-.438-.941 0-.226.068-.444.163-.637-.097.008-.196.01-.299.01-1.468 0-2.452-1.106-2.452-2.475 0-1.34 1.358-2.498 2.802-2.498h3.22zM62.216 7a2.556 2.556 0 0 0-.8-.137c-1.237-.014-2.344.798-2.344 1.772 0 .994.893 1.822 2.129 1.822 1.737 0 2.343-.777 2.343-1.77 0-.121-.014-.238-.04-.352-.135-.563-.617-.842-1.288-1.335zm.552-4.413c-.143-1.153-.932-2.078-1.761-2.104-.83-.027-1.386.856-1.243 2.008.143 1.153.932 2.109 1.761 2.135.83.026 1.386-.887 1.243-2.04zm7.448-.145v.813H67.91v2.442h-.77V3.254h-2.306v-.813h2.307V-.001h.769v2.442z"/></g><g><path fill="#34404b" d="M40.537 1.302c-.48.22-.994.37-1.535.437A2.77 2.77 0 0 0 40.177.202a5.222 5.222 0 0 1-1.697.674A2.625 2.625 0 0 0 36.528 0c-1.476 0-2.673 1.244-2.673 2.778 0 .217.024.429.07.632-2.222-.116-4.192-1.221-5.51-2.902-.23.41-.362.888-.362 1.397 0 .963.472 1.813 1.189 2.312a2.589 2.589 0 0 1-1.211-.348v.035c0 1.345.921 2.468 2.144 2.723a2.58 2.58 0 0 1-1.207.047c.34 1.104 1.327 1.907 2.497 1.93a5.236 5.236 0 0 1-3.958 1.15A7.36 7.36 0 0 0 31.605 11c4.917 0 7.606-4.232 7.606-7.901 0-.12-.003-.24-.008-.36.523-.391.976-.88 1.334-1.437z"/></g><g><path fill="#34404b" d="M3.87 11H1.55V5.5h-1.55V3.605l1.55-.001-.003-1.117C1.546.941 2.02 0 4.071 0h1.708v1.896H4.712c-.8 0-.838.265-.838.76l-.003.948h1.92l-.226 1.895H3.872z"/></g></g></g></svg>