<svg width="292" height="263" viewBox="0 0 292 263" fill="none" xmlns="http://www.w3.org/2000/svg">
<path d="M29.1667 0L58.3333 58.3333H102.083L72.9167 0H102.083L131.25 58.3333H175L145.833 0H175L204.167 58.3333H247.917L218.75 0H262.5C270.521 0 277.39 2.85347 283.106 8.56042C288.813 14.2771 291.667 21.1458 291.667 29.1667V233.333C291.667 241.354 288.813 248.223 283.106 253.94C277.39 259.647 270.521 262.5 262.5 262.5H29.1667C21.1458 262.5 14.2819 259.647 8.575 253.94C2.85833 248.223 0 241.354 0 233.333V29.1667C0 21.1458 2.85833 14.2771 8.575 8.56042C14.2819 2.85347 21.1458 0 29.1667 0ZM87.5 218.75H204.167V210.729C204.167 200.035 198.819 191.406 188.125 184.844C177.431 178.281 163.333 175 145.833 175C128.333 175 114.236 178.281 103.542 184.844C92.8472 191.406 87.5 200.035 87.5 210.729V218.75ZM145.833 160.417C153.854 160.417 160.723 157.558 166.44 151.842C172.147 146.135 175 139.271 175 131.25C175 123.229 172.147 116.36 166.44 110.644C160.723 104.937 153.854 102.083 145.833 102.083C137.812 102.083 130.949 104.937 125.242 110.644C119.525 116.36 116.667 123.229 116.667 131.25C116.667 139.271 119.525 146.135 125.242 151.842C130.949 157.558 137.812 160.417 145.833 160.417Z" fill="url(#paint0_linear_119_2873)" fill-opacity="0.54"/>
<defs>
<linearGradient id="paint0_linear_119_2873" x1="145.833" y1="0" x2="145.833" y2="262.5" gradientUnits="userSpaceOnUse">
<stop stop-color="#907A5E"/>
<stop offset="1" stop-color="#6F491A" stop-opacity="0.35"/>
</linearGradient>
</defs>
</svg>
