<svg width="82" height="82" viewBox="0 0 82 82" fill="none" xmlns="http://www.w3.org/2000/svg">
<path d="M47.8335 64.9167C60.7177 64.9167 67.1616 64.9167 71.1625 60.9123C75.1668 56.9114 75.1668 50.4676 75.1668 37.5833C75.1668 24.6991 75.1668 18.2552 71.1625 14.2543C67.1616 10.25 60.7177 10.25 47.8335 10.25H34.1668C21.2826 10.25 14.8387 10.25 10.8378 14.2543C6.8335 18.2552 6.8335 24.6991 6.8335 37.5833C6.8335 50.4676 6.8335 56.9114 10.8378 60.9123C13.0689 63.1468 16.0585 64.1342 20.5002 64.5682" stroke="#907A5E" stroke-width="6" stroke-linecap="round" stroke-linejoin="round"/>
<path d="M34.1668 28.9868C35.8751 25.6043 37.5834 23.9165 41.0001 23.9165C45.2573 23.9165 47.8334 27.2956 47.8334 30.6747C47.8334 34.0538 46.1251 34.2041 41.0001 37.5832V40.9998M41.0001 49.5415V51.2498M47.8334 64.9165C43.6104 64.9165 38.9569 66.6248 34.71 68.8286C27.8835 72.3717 24.4703 74.1449 22.7893 73.014C21.1083 71.8865 21.426 68.3844 22.0649 61.3837L22.2084 59.7915" stroke="#907A5E" stroke-width="6" stroke-linecap="round"/>
</svg>
