<svg width="69" height="69" viewBox="0 0 69 69" fill="none" xmlns="http://www.w3.org/2000/svg">
<path d="M64.6875 34.3114C64.6875 34.1632 64.6875 33.9947 64.6808 33.7993C64.674 33.2535 64.6605 32.6403 64.6471 31.9867C64.5932 30.1067 64.4988 28.2335 64.3506 26.4681C64.1484 24.0355 63.852 22.0073 63.4477 20.4845C63.021 18.8952 62.1847 17.4458 61.0224 16.2811C59.86 15.1164 58.4123 14.2771 56.8239 13.8473C54.917 13.3352 51.184 13.0185 45.9281 12.823C43.4282 12.7287 40.7531 12.6681 38.078 12.6344C37.1414 12.6209 36.2722 12.6142 35.4905 12.6074H33.5095C32.7278 12.6142 31.8586 12.6209 30.922 12.6344C28.2469 12.6681 25.5718 12.7287 23.0719 12.823C17.816 13.0252 14.0763 13.3419 12.1761 13.8473C10.5872 14.2761 9.13892 15.115 7.9764 16.2799C6.81388 17.4448 5.97793 18.8947 5.55234 20.4845C5.14131 22.0073 4.85156 24.0355 4.64941 26.4681C4.50117 28.2335 4.40684 30.1067 4.35293 31.9867C4.33271 32.6403 4.32598 33.2535 4.31924 33.7993C4.31924 33.9947 4.3125 34.1632 4.3125 34.3114V34.6888C4.3125 34.837 4.3125 35.0055 4.31924 35.2009C4.32598 35.7467 4.33945 36.3599 4.35293 37.0135C4.40684 38.8935 4.50117 40.7667 4.64941 42.5321C4.85156 44.9647 5.14805 46.9929 5.55234 48.5157C6.41484 51.7434 8.94844 54.2904 12.1761 55.1529C14.0763 55.6651 17.816 55.9818 23.0719 56.1772C25.5718 56.2715 28.2469 56.3321 30.922 56.3658C31.8586 56.3793 32.7278 56.3861 33.5095 56.3928H35.4905C36.2722 56.3861 37.1414 56.3793 38.078 56.3658C40.7531 56.3321 43.4282 56.2715 45.9281 56.1772C51.184 55.975 54.9237 55.6583 56.8239 55.1529C60.0516 54.2904 62.5852 51.7501 63.4477 48.5157C63.8587 46.9929 64.1484 44.9647 64.3506 42.5321C64.4988 40.7667 64.5932 38.8935 64.6471 37.0135C64.6673 36.3599 64.674 35.7467 64.6808 35.2009C64.6808 35.0055 64.6875 34.837 64.6875 34.6888V34.3114ZM59.8359 34.6618C59.8359 34.8033 59.8359 34.9583 59.8292 35.1402C59.8225 35.6658 59.809 36.2453 59.7955 36.872C59.7483 38.6644 59.654 40.4567 59.5125 42.1211C59.3306 44.2908 59.0745 46.0697 58.7578 47.2624C58.34 48.819 57.1137 50.0521 55.5639 50.4631C54.1488 50.8404 50.5843 51.1437 45.7395 51.3256C43.2867 51.4199 40.6453 51.4806 38.0106 51.5143C37.0875 51.5277 36.2317 51.5345 35.4636 51.5345H33.5364L30.9894 51.5143C28.3547 51.4806 25.72 51.4199 23.2605 51.3256C18.4157 51.1369 14.8444 50.8404 13.4361 50.4631C11.8863 50.0453 10.66 48.819 10.2422 47.2624C9.92549 46.0697 9.66943 44.2908 9.4875 42.1211C9.346 40.4567 9.2584 38.6644 9.20449 36.872C9.18428 36.2453 9.17754 35.6591 9.1708 35.1402C9.1708 34.9583 9.16406 34.7966 9.16406 34.6618V34.3384C9.16406 34.1969 9.16406 34.0419 9.1708 33.86C9.17754 33.3344 9.19102 32.7549 9.20449 32.1282C9.25166 30.3358 9.346 28.5435 9.4875 26.8791C9.66943 24.7094 9.92549 22.9305 10.2422 21.7378C10.66 20.1813 11.8863 18.9481 13.4361 18.5371C14.8512 18.1598 18.4157 17.8565 23.2605 17.6746C25.7133 17.5803 28.3547 17.5196 30.9894 17.4859C31.9125 17.4725 32.7683 17.4657 33.5364 17.4657H35.4636L38.0106 17.4859C40.6453 17.5196 43.28 17.5803 45.7395 17.6746C50.5843 17.8633 54.1556 18.1598 55.5639 18.5371C57.1137 18.9549 58.34 20.1813 58.7578 21.7378C59.0745 22.9305 59.3306 24.7094 59.5125 26.8791C59.654 28.5435 59.7416 30.3358 59.7955 32.1282C59.8157 32.7549 59.8225 33.3411 59.8292 33.86C59.8292 34.0419 59.8359 34.2036 59.8359 34.3384V34.6618ZM28.5029 43.5294L44.1357 34.4327L28.5029 25.4708V43.5294Z" fill="#907A5E"/>
</svg>
