<svg width="28" height="28" viewBox="0 0 28 28" fill="none" xmlns="http://www.w3.org/2000/svg">
<path d="M23.8175 4.94629C24.4825 4.94629 24.9842 5.52962 24.7158 6.61462L21.4608 21.9563C21.2333 23.0471 20.5742 23.3096 19.6642 22.8021L11.9 17.068C11.8699 17.0463 11.8454 17.0179 11.8285 16.9849C11.8115 16.9519 11.8027 16.9154 11.8027 16.8784C11.8027 16.8413 11.8115 16.8048 11.8285 16.7718C11.8454 16.7389 11.8699 16.7104 11.9 16.6888L20.8658 8.59212C21.2742 8.23045 20.7783 8.05545 20.2417 8.38212L8.98918 15.4813C8.95505 15.5035 8.91631 15.5177 8.87588 15.5228C8.83545 15.5278 8.7944 15.5236 8.75585 15.5105L3.97834 13.9996C2.91668 13.6905 2.91668 12.9613 4.21751 12.4421L23.3333 5.06879C23.4849 4.99606 23.6496 4.95441 23.8175 4.94629V4.94629Z" stroke="white" stroke-linecap="round" stroke-linejoin="round"/>
</svg>
