<svg width="361" height="361" viewBox="0 0 361 361" fill="none" xmlns="http://www.w3.org/2000/svg">
<g clip-path="url(#clip0_55_2102)">
<path d="M135.375 67.6875C135.375 85.6393 128.244 102.856 115.55 115.55C102.856 128.244 85.6393 135.375 67.6875 135.375C49.7357 135.375 32.5191 128.244 19.8252 115.55C7.13134 102.856 0 85.6393 0 67.6875C0 49.7357 7.13134 32.5191 19.8252 19.8252C32.5191 7.13134 49.7357 0 67.6875 0C85.6393 0 102.856 7.13134 115.55 19.8252C128.244 32.5191 135.375 49.7357 135.375 67.6875ZM22.5625 67.6875C22.5625 79.6554 27.3167 91.1331 35.7793 99.5957C44.2419 108.058 55.7196 112.812 67.6875 112.812C79.6554 112.812 91.1331 108.058 99.5957 99.5957C108.058 91.1331 112.812 79.6554 112.812 67.6875C112.812 55.7196 108.058 44.2419 99.5957 35.7793C91.1331 27.3167 79.6554 22.5625 67.6875 22.5625C55.7196 22.5625 44.2419 27.3167 35.7793 35.7793C27.3167 44.2419 22.5625 55.7196 22.5625 67.6875Z" fill="#907A5E" fill-opacity="0.14"/>
<path d="M203.062 135.375H214.344C225.289 135.374 235.861 139.35 244.092 146.564C252.323 153.778 257.651 163.738 259.085 174.589L329.255 143.407C332.689 141.877 336.452 141.229 340.2 141.523C343.949 141.817 347.565 143.043 350.719 145.09C353.873 147.136 356.466 149.939 358.262 153.243C360.057 156.547 360.998 160.247 361 164.007V332.368C360.997 336.125 360.055 339.822 358.261 343.123C356.467 346.424 353.876 349.225 350.725 351.271C347.574 353.318 343.962 354.545 340.216 354.841C336.471 355.137 332.711 354.493 329.277 352.968L259.085 321.786C257.651 332.637 252.323 342.597 244.092 349.811C235.861 357.025 225.289 361.001 214.344 361H45.125C33.1571 361 21.6794 356.246 13.2168 347.783C4.75423 339.321 0 327.843 0 315.875V180.5C0 168.532 4.75423 157.054 13.2168 148.592C21.6794 140.129 33.1571 135.375 45.125 135.375H203.062ZM338.438 332.346V164.029L259.469 199.114V297.261L338.438 332.368V332.346ZM22.5625 180.5V315.875C22.5625 321.859 24.9396 327.598 29.1709 331.829C33.4022 336.06 39.1411 338.438 45.125 338.438H214.344C220.328 338.438 226.067 336.06 230.298 331.829C234.529 327.598 236.906 321.859 236.906 315.875V180.5C236.906 174.516 234.529 168.777 230.298 164.546C226.067 160.315 220.328 157.938 214.344 157.938H45.125C39.1411 157.938 33.4022 160.315 29.1709 164.546C24.9396 168.777 22.5625 174.516 22.5625 180.5Z" fill="#907A5E" fill-opacity="0.14"/>
<path d="M203.062 135.375C221.014 135.375 238.231 128.244 250.925 115.55C263.619 102.856 270.75 85.6393 270.75 67.6875C270.75 49.7357 263.619 32.5191 250.925 19.8252C238.231 7.13134 221.014 0 203.062 0C185.111 0 167.894 7.13134 155.2 19.8252C142.506 32.5191 135.375 49.7357 135.375 67.6875C135.375 85.6393 142.506 102.856 155.2 115.55C167.894 128.244 185.111 135.375 203.062 135.375ZM157.938 67.6875C157.938 55.7196 162.692 44.2419 171.154 35.7793C179.617 27.3167 191.095 22.5625 203.062 22.5625C215.03 22.5625 226.508 27.3167 234.971 35.7793C243.433 44.2419 248.188 55.7196 248.188 67.6875C248.188 79.6554 243.433 91.1331 234.971 99.5957C226.508 108.058 215.03 112.812 203.062 112.812C191.095 112.812 179.617 108.058 171.154 99.5957C162.692 91.1331 157.938 79.6554 157.938 67.6875Z" fill="#907A5E" fill-opacity="0.14"/>
</g>
<defs>
<clipPath id="clip0_55_2102">
<rect width="361" height="361" fill="white"/>
</clipPath>
</defs>
</svg>
