<svg width="36" height="36" viewBox="0 0 36 36" fill="none" xmlns="http://www.w3.org/2000/svg">
<path d="M26.7103 16.5555C26.7135 15.1703 25.7339 14.0119 24.4332 13.7331C24.9552 12.865 25.2767 11.8611 25.2792 10.7778C25.2866 7.59133 22.7013 5 19.5149 5C17.3237 5 15.4372 6.23789 14.4523 8.0391C13.4757 6.23789 11.595 5 9.40377 5C6.21732 5 3.61998 7.59133 3.61258 10.7778C3.60955 12.0806 4.05745 13.2723 4.78465 14.2386C4.41944 14.5052 4.12185 14.8539 3.91591 15.2563C3.70998 15.6588 3.60147 16.1039 3.59916 16.5555L3.57233 28.111C3.56863 29.7043 4.86129 30.9999 6.45451 30.9999L23.7878 30.9999C25.3811 30.9999 26.6797 29.7043 26.6834 28.111L26.6923 24.3006L32.4633 27.1895L32.4868 17.0784L26.7023 19.9673L26.7103 16.5555ZM19.5082 7.88888C21.1014 7.88888 22.394 9.18454 22.3903 10.7778C22.3866 12.371 21.088 13.6666 19.4948 13.6666C17.9015 13.6666 16.6089 12.371 16.6126 10.7778C16.6163 9.18454 17.9149 7.88888 19.5082 7.88888ZM9.39706 7.88888C10.9903 7.88888 12.2829 9.18454 12.2792 10.7778C12.2755 12.371 10.9769 13.6666 9.38365 13.6666C7.79042 13.6666 6.49777 12.371 6.50146 10.7778C6.50516 9.18454 7.80384 7.88888 9.39706 7.88888ZM6.46122 28.111L6.48805 16.5555L23.8214 16.5555L23.7974 28.111L6.46122 28.111Z" fill="#D7D7D7"/>
</svg>
