<svg width="52" height="52" viewBox="0 0 52 52" fill="none" xmlns="http://www.w3.org/2000/svg">
<path d="M34.7103 24.5555C34.7135 23.1703 33.7339 22.0119 32.4332 21.7331C32.9552 20.865 33.2767 19.8611 33.2792 18.7778C33.2866 15.5913 30.7013 13 27.5149 13C25.3237 13 23.4372 14.2379 22.4523 16.0391C21.4757 14.2379 19.595 13 17.4038 13C14.2173 13 11.62 15.5913 11.6126 18.7778C11.6096 20.0806 12.0575 21.2723 12.7847 22.2386C12.4194 22.5052 12.1218 22.8539 11.9159 23.2563C11.71 23.6588 11.6015 24.1039 11.5992 24.5555L11.5723 36.111C11.5686 37.7043 12.8613 38.9999 14.4545 38.9999L31.7878 38.9999C33.3811 38.9999 34.6797 37.7043 34.6834 36.111L34.6923 32.3006L40.4634 35.1895L40.4868 25.0784L34.7023 27.9673L34.7103 24.5555ZM27.5082 15.8889C29.1014 15.8889 30.394 17.1845 30.3903 18.7778C30.3866 20.371 29.088 21.6666 27.4948 21.6666C25.9015 21.6666 24.6089 20.371 24.6126 18.7778C24.6163 17.1845 25.9149 15.8889 27.5082 15.8889ZM17.3971 15.8889C18.9903 15.8889 20.2829 17.1845 20.2792 18.7778C20.2755 20.371 18.9769 21.6666 17.3836 21.6666C15.7904 21.6666 14.4978 20.371 14.5015 18.7778C14.5052 17.1845 15.8038 15.8889 17.3971 15.8889ZM14.4612 36.111L14.488 24.5555L31.8214 24.5555L31.7974 36.111L14.4612 36.111Z" fill="#D7D7D7"/>
</svg>
