<svg width="16" height="16" viewBox="0 0 16 16" fill="none" xmlns="http://www.w3.org/2000/svg">
<path d="M5.66667 9.99992H10.3333M5.66667 11.9999H8M13 1.33325H3.66667C3.48986 1.33325 3.32029 1.40349 3.19526 1.52851C3.07024 1.65354 3 1.82311 3 1.99992V13.9999C3 14.1767 3.07024 14.3463 3.19526 14.4713C3.32029 14.5963 3.48986 14.6666 3.66667 14.6666H13C13.1768 14.6666 13.3464 14.5963 13.4714 14.4713C13.5964 14.3463 13.6667 14.1767 13.6667 13.9999V1.99992C13.6667 1.82311 13.5964 1.65354 13.4714 1.52851C13.3464 1.40349 13.1768 1.33325 13 1.33325V1.33325Z" stroke="white" stroke-linecap="round" stroke-linejoin="round"/>
<path d="M5.66666 4H10.3333V7.33333H5.66666V4Z" stroke="white" stroke-linecap="round" stroke-linejoin="round"/>
</svg>
