<svg width="16" height="16" viewBox="0 0 16 16" fill="none" xmlns="http://www.w3.org/2000/svg">
<path d="M13.3333 8.99992V1.99992C13.3333 1.82311 13.2631 1.65354 13.1381 1.52851C13.013 1.40349 12.8435 1.33325 12.6667 1.33325H3.33333C3.15652 1.33325 2.98695 1.40349 2.86193 1.52851C2.7369 1.65354 2.66666 1.82311 2.66666 1.99992V13.9999C2.66666 14.1767 2.7369 14.3463 2.86193 14.4713C2.98695 14.5963 3.15652 14.6666 3.33333 14.6666H7M5.66666 3.99992H10.3333M5.66666 6.66659H10.3333M5.66666 9.33325H7.66666" stroke="white" stroke-linecap="round" stroke-linejoin="round"/>
<path d="M13 14.6665L11.845 13.5115M11.845 13.5115C12.003 13.3575 12.1288 13.1736 12.2151 12.9706C12.3015 12.7675 12.3467 12.5494 12.3481 12.3287C12.3494 12.1081 12.307 11.8894 12.2232 11.6852C12.1394 11.4811 12.0159 11.2957 11.8599 11.1397C11.7038 10.9837 11.5184 10.8602 11.3142 10.7764C11.1101 10.6926 10.8914 10.6502 10.6708 10.6516C10.4501 10.6531 10.2319 10.6983 10.0289 10.7847C9.82588 10.871 9.64202 10.9969 9.488 11.1549C9.17774 11.468 9.00414 11.8912 9.00516 12.3319C9.00619 12.7727 9.18177 13.1951 9.49348 13.5067C9.80519 13.8184 10.2276 13.9938 10.6684 13.9947C11.1092 13.9956 11.5323 13.8219 11.8453 13.5115H11.845Z" stroke="white" stroke-linecap="round" stroke-linejoin="round"/>
</svg>
