<svg width="16" height="16" viewBox="0 0 16 16" fill="none" xmlns="http://www.w3.org/2000/svg">
<path d="M5.66666 9.99992H10.3333M5.66666 11.9999H8M12.6667 1.33325H3.33333C3.15652 1.33325 2.98695 1.40349 2.86193 1.52851C2.7369 1.65354 2.66666 1.82311 2.66666 1.99992V13.9999C2.66666 14.1767 2.7369 14.3463 2.86193 14.4713C2.98695 14.5963 3.15652 14.6666 3.33333 14.6666H12.6667C12.8435 14.6666 13.013 14.5963 13.1381 14.4713C13.2631 14.3463 13.3333 14.1767 13.3333 13.9999V1.99992C13.3333 1.82311 13.2631 1.65354 13.1381 1.52851C13.013 1.40349 12.8435 1.33325 12.6667 1.33325V1.33325Z" stroke="white" stroke-linecap="round" stroke-linejoin="round"/>
<path d="M10 4.33325L7.33333 6.99992L6 5.66659" stroke="white" stroke-linecap="round" stroke-linejoin="round"/>
</svg>
