<svg width="32" height="32" viewBox="0 0 32 32" fill="none" xmlns="http://www.w3.org/2000/svg">
<path opacity="0.8" d="M29.755 1.09018C28.6798 0.904982 27.591 0.809653 26.5 0.805182C22.7775 0.802131 19.1327 1.86954 16 3.88018C12.8592 1.89594 9.21497 0.854729 5.49999 0.880182C4.40896 0.884653 3.3202 0.979982 2.24499 1.16518C1.8928 1.2259 1.57386 1.41037 1.34561 1.68537C1.11736 1.96037 0.994794 2.30783 0.99999 2.66518V20.6652C0.996777 20.8856 1.04218 21.104 1.13296 21.3048C1.22375 21.5057 1.35769 21.6841 1.52525 21.8273C1.69281 21.9705 1.88988 22.075 2.10242 22.1334C2.31497 22.1918 2.53778 22.2027 2.75499 22.1652C4.90452 21.793 7.10679 21.8548 9.23209 22.3468C11.3574 22.8388 13.3627 23.7512 15.13 25.0302L15.31 25.1352H15.475C15.6413 25.2045 15.8198 25.2402 16 25.2402C16.1802 25.2402 16.3586 25.2045 16.525 25.1352H16.69L16.87 25.0302C18.6249 23.7226 20.6245 22.7807 22.7502 22.2602C24.8759 21.7397 27.0845 21.6513 29.245 22.0002C29.4622 22.0377 29.685 22.0268 29.8976 21.9684C30.1101 21.91 30.3072 21.8055 30.4747 21.6623C30.6423 21.5191 30.7762 21.3407 30.867 21.1398C30.9578 20.939 31.0032 20.7206 31 20.5002V2.50018C30.9844 2.15841 30.8524 1.83225 30.626 1.57579C30.3995 1.31933 30.0922 1.14799 29.755 1.09018ZM14.5 21.0252C11.7248 19.5652 8.63577 18.8032 5.49999 18.8052C5.00499 18.8052 4.50999 18.8052 3.99999 18.8052V3.80518C4.49958 3.77639 5.0004 3.77639 5.49999 3.80518C8.70007 3.80165 11.8303 4.74072 14.5 6.50518V21.0252ZM28 18.8652C27.49 18.8652 26.995 18.8652 26.5 18.8652C23.3642 18.8632 20.2752 19.6252 17.5 21.0852V6.50518C20.1697 4.74072 23.2999 3.80165 26.5 3.80518C26.9996 3.77639 27.5004 3.77639 28 3.80518V18.8652ZM29.755 25.0902C28.6798 24.905 27.591 24.8097 26.5 24.8052C22.7775 24.8021 19.1327 25.8695 16 27.8802C12.8673 25.8695 9.22244 24.8021 5.49999 24.8052C4.40896 24.8097 3.3202 24.905 2.24499 25.0902C2.04973 25.1212 1.86252 25.1904 1.69413 25.294C1.52574 25.3976 1.37949 25.5335 1.26379 25.6938C1.14809 25.8541 1.06522 26.0357 1.01995 26.2281C0.974673 26.4206 0.967891 26.6201 0.99999 26.8152C1.07622 27.2047 1.30373 27.5481 1.63268 27.7703C1.96163 27.9924 2.3652 28.075 2.75499 28.0002C4.90452 27.628 7.10679 27.6898 9.23209 28.1818C11.3574 28.6738 13.3627 29.5862 15.13 30.8652C15.384 31.0461 15.6881 31.1433 16 31.1433C16.3118 31.1433 16.6159 31.0461 16.87 30.8652C18.6373 29.5862 20.6426 28.6738 22.7679 28.1818C24.8932 27.6898 27.0955 27.628 29.245 28.0002C29.6348 28.075 30.0384 27.9924 30.3673 27.7703C30.6963 27.5481 30.9238 27.2047 31 26.8152C31.0321 26.6201 31.0253 26.4206 30.98 26.2281C30.9348 26.0357 30.8519 25.8541 30.7362 25.6938C30.6205 25.5335 30.4742 25.3976 30.3058 25.294C30.1375 25.1904 29.9502 25.1212 29.755 25.0902Z" fill="white"/>
</svg>
