<svg width="582" height="66" viewBox="0 0 582 66" fill="none" xmlns="http://www.w3.org/2000/svg">
<path d="M18.669 64H16.669V66H18.669V64ZM18.669 13.448L20.0832 12.0338L16.669 8.61957V13.448H18.669ZM23.208 17.987V19.987H28.0364L24.6222 16.5728L23.208 17.987ZM0.424 17.987H-1.576V19.987H0.424V17.987ZM0.424 1.7V-0.300004H-1.576V1.7H0.424ZM57.562 1.7H59.562V-0.300004H57.562V1.7ZM57.562 17.987V19.987H59.562V17.987H57.562ZM34.778 17.987L33.3638 16.5728L29.9496 19.987H34.778V17.987ZM39.317 13.448H41.317V8.61957L37.9028 12.0338L39.317 13.448ZM39.317 64V66H41.317V64H39.317ZM20.669 64V13.448H16.669V64H20.669ZM17.2548 14.8622L21.7938 19.4012L24.6222 16.5728L20.0832 12.0338L17.2548 14.8622ZM23.208 15.987H0.424V19.987H23.208V15.987ZM2.424 17.987V1.7H-1.576V17.987H2.424ZM0.424 3.7H57.562V-0.300004H0.424V3.7ZM55.562 1.7V17.987H59.562V1.7H55.562ZM57.562 15.987H34.778V19.987H57.562V15.987ZM36.1922 19.4012L40.7312 14.8622L37.9028 12.0338L33.3638 16.5728L36.1922 19.4012ZM37.317 13.448V64H41.317V13.448H37.317ZM39.317 62H18.669V66H39.317V62ZM60.5588 64L58.7262 63.1989L57.5018 66H60.5588V64ZM87.7928 1.7V-0.300004H86.4843L85.9602 0.898907L87.7928 1.7ZM108.441 1.7L110.273 0.898907L109.749 -0.300004H108.441V1.7ZM135.675 64V66H138.732L137.507 63.1989L135.675 64ZM113.959 64L112.092 64.7175L112.585 66H113.959V64ZM93.8448 11.668V9.668H90.9334L91.9779 12.3855L93.8448 11.668ZM102.033 11.668L103.9 12.3855L104.944 9.668H102.033V11.668ZM81.9188 64V66H83.2927L83.7857 64.7175L81.9188 64ZM76.7568 53.142L74.8708 52.4764L73.93 55.142H76.7568V53.142ZM82.0968 38.012V36.012H80.6818L80.2108 37.3464L82.0968 38.012ZM110.755 38.012L112.641 37.3464L112.17 36.012H110.755V38.012ZM116.095 53.142V55.142H118.922L117.981 52.4764L116.095 53.142ZM62.3914 64.8011L89.6254 2.50108L85.9602 0.898907L58.7262 63.1989L62.3914 64.8011ZM87.7928 3.7H108.441V-0.300004H87.7928V3.7ZM106.608 2.50108L133.842 64.8011L137.507 63.1989L110.273 0.898907L106.608 2.50108ZM135.675 62H113.959V66H135.675V62ZM115.826 63.2825L95.7117 10.9505L91.9779 12.3855L112.092 64.7175L115.826 63.2825ZM93.8448 13.668H102.033V9.668H93.8448V13.668ZM100.166 10.9505L80.0519 63.2825L83.7857 64.7175L103.9 12.3855L100.166 10.9505ZM81.9188 62H60.5588V66H81.9188V62ZM78.6428 53.8076L83.9828 38.6776L80.2108 37.3464L74.8708 52.4764L78.6428 53.8076ZM82.0968 40.012H110.755V36.012H82.0968V40.012ZM108.869 38.6776L114.209 53.8076L117.981 52.4764L112.641 37.3464L108.869 38.6776ZM116.095 51.142H76.7568V55.142H116.095V51.142ZM147.189 64.89L146.951 66.8758L146.951 66.8758L147.189 64.89ZM142.472 64L140.476 63.8733L140.371 65.5362L141.987 65.9403L142.472 64ZM143.54 47.179L143.959 45.2234L141.691 44.7374L141.544 47.0523L143.54 47.179ZM151.016 44.598L149.296 43.5769L149.296 43.5769L151.016 44.598ZM153.33 36.944L155.314 37.2011L155.314 37.1965L153.33 36.944ZM154.131 25.997L152.132 25.9311L152.132 25.9382L154.131 25.997ZM154.932 1.7V-0.300004H152.997L152.933 1.6341L154.932 1.7ZM207.531 1.7H209.531V-0.300004H207.531V1.7ZM207.531 64V66H209.531V64H207.531ZM186.883 64H184.883V66H186.883V64ZM186.883 13.537L188.283 12.1089L184.883 8.77538V13.537H186.883ZM191.422 17.987V19.987H196.319L192.822 16.5589L191.422 17.987ZM168.727 17.987L167.217 16.6761L164.343 19.987H168.727V17.987ZM172.821 13.27L174.82 13.3297L174.988 7.72259L171.311 11.9591L172.821 13.27ZM172.465 25.196L170.466 25.1363L170.466 25.1366L172.465 25.196ZM171.219 41.572L169.237 41.3092L169.235 41.3196L169.234 41.3299L171.219 41.572ZM168.104 54.21L169.946 54.9903L169.95 54.9792L168.104 54.21ZM161.785 62.309L160.643 60.6672L160.635 60.6731L160.626 60.6791L161.785 62.309ZM151.372 63.157C150.157 63.157 148.843 63.0741 147.427 62.9042L146.951 66.8758C148.502 67.0619 149.977 67.157 151.372 67.157V63.157ZM147.427 62.9042C146.038 62.7375 144.549 62.4576 142.957 62.0597L141.987 65.9403C143.718 66.3731 145.373 66.6865 146.951 66.8758L147.427 62.9042ZM144.468 64.1267L145.536 47.3057L141.544 47.0523L140.476 63.8733L144.468 64.1267ZM143.121 49.1346C144.064 49.3366 144.977 49.446 145.854 49.446V45.446C145.307 45.446 144.678 45.3774 143.959 45.2234L143.121 49.1346ZM145.854 49.446C148.833 49.446 151.228 48.1594 152.736 45.6191L149.296 43.5769C148.55 44.8339 147.504 45.446 145.854 45.446V49.446ZM152.736 45.6191C154.051 43.4041 154.878 40.5606 155.314 37.2011L151.347 36.6869C150.952 39.7354 150.236 41.9945 149.296 43.5769L152.736 45.6191ZM155.314 37.1965C155.739 33.8564 156.01 30.1413 156.13 26.0558L152.132 25.9382C152.015 29.922 151.752 33.5049 151.346 36.6915L155.314 37.1965ZM156.13 26.0629L156.931 1.76589L152.933 1.6341L152.132 25.9311L156.13 26.0629ZM154.932 3.7H207.531V-0.300004H154.932V3.7ZM205.531 1.7V64H209.531V1.7H205.531ZM207.531 62H186.883V66H207.531V62ZM188.883 64V13.537H184.883V64H188.883ZM185.483 14.9651L190.022 19.4151L192.822 16.5589L188.283 12.1089L185.483 14.9651ZM191.422 15.987H168.727V19.987H191.422V15.987ZM170.238 19.2979L174.332 14.5809L171.311 11.9591L167.217 16.6761L170.238 19.2979ZM170.822 13.2103L170.466 25.1363L174.464 25.2557L174.82 13.3297L170.822 13.2103ZM170.466 25.1366C170.29 31.0746 169.879 36.4641 169.237 41.3092L173.202 41.8348C173.865 36.8305 174.285 31.3027 174.464 25.2554L170.466 25.1366ZM169.234 41.3299C168.657 46.0604 167.655 50.0876 166.258 53.4408L169.95 54.9792C171.52 51.2124 172.595 46.8142 173.204 41.8141L169.234 41.3299ZM166.263 53.4297C164.905 56.634 163.02 59.0136 160.643 60.6672L162.927 63.9508C166.009 61.8071 168.337 58.7873 169.946 54.9903L166.263 53.4297ZM160.626 60.6791C158.384 62.2732 155.354 63.157 151.372 63.157V67.157C155.934 67.157 159.846 66.1421 162.944 63.9389L160.626 60.6791ZM217.734 64L215.902 63.1989L214.677 66H217.734V64ZM244.968 1.7V-0.300004H243.66L243.136 0.898907L244.968 1.7ZM265.616 1.7L267.449 0.898907L266.925 -0.300004H265.616V1.7ZM292.85 64V66H295.907L294.683 63.1989L292.85 64ZM271.134 64L269.267 64.7175L269.76 66H271.134V64ZM251.02 11.668V9.668H248.109L249.153 12.3855L251.02 11.668ZM259.208 11.668L261.075 12.3855L262.12 9.668H259.208V11.668ZM239.094 64V66H240.468L240.961 64.7175L239.094 64ZM233.932 53.142L232.046 52.4764L231.105 55.142H233.932V53.142ZM239.272 38.012V36.012H237.857L237.386 37.3464L239.272 38.012ZM267.93 38.012L269.816 37.3464L269.345 36.012H267.93V38.012ZM273.27 53.142V55.142H276.097L275.156 52.4764L273.27 53.142ZM219.567 64.8011L246.801 2.50108L243.136 0.898907L215.902 63.1989L219.567 64.8011ZM244.968 3.7H265.616V-0.300004H244.968V3.7ZM263.784 2.50108L291.018 64.8011L294.683 63.1989L267.449 0.898907L263.784 2.50108ZM292.85 62H271.134V66H292.85V62ZM273.001 63.2825L252.887 10.9505L249.153 12.3855L269.267 64.7175L273.001 63.2825ZM251.02 13.668H259.208V9.668H251.02V13.668ZM257.341 10.9505L237.227 63.2825L240.961 64.7175L261.075 12.3855L257.341 10.9505ZM239.094 62H217.734V66H239.094V62ZM235.818 53.8076L241.158 38.6776L237.386 37.3464L232.046 52.4764L235.818 53.8076ZM239.272 40.012H267.93V36.012H239.272V40.012ZM266.044 38.6776L271.384 53.8076L275.156 52.4764L269.816 37.3464L266.044 38.6776ZM273.27 51.142H233.932V55.142H273.27V51.142ZM343.456 1.7V-0.300004H341.456V1.7H343.456ZM364.46 1.7H366.46V-0.300004H364.46V1.7ZM364.46 64V66H366.46V64H364.46ZM343.456 64H341.456V66H343.456V64ZM324.054 64V66H326.054V64H324.054ZM303.05 64H301.05V66H303.05V64ZM303.05 1.7V-0.300004H301.05V1.7H303.05ZM324.054 1.7H326.054V-0.300004H324.054V1.7ZM344.88 41.038V43.038H346.88V41.038H344.88ZM322.63 41.038H320.63V43.038H322.63V41.038ZM322.63 23.772V21.772H320.63V23.772H322.63ZM344.88 23.772H346.88V21.772H344.88V23.772ZM343.456 3.7H364.46V-0.300004H343.456V3.7ZM362.46 1.7V64H366.46V1.7H362.46ZM364.46 62H343.456V66H364.46V62ZM345.456 64V1.7H341.456V64H345.456ZM324.054 62H303.05V66H324.054V62ZM305.05 64V1.7H301.05V64H305.05ZM303.05 3.7H324.054V-0.300004H303.05V3.7ZM322.054 1.7V64H326.054V1.7H322.054ZM344.88 39.038H322.63V43.038H344.88V39.038ZM324.63 41.038V23.772H320.63V41.038H324.63ZM322.63 25.772H344.88V21.772H322.63V25.772ZM342.88 23.772V41.038H346.88V23.772H342.88ZM394.138 64H392.138V66H394.138V64ZM394.138 13.448L395.552 12.0338L392.138 8.61957V13.448H394.138ZM398.677 17.987V19.987H403.505L400.091 16.5728L398.677 17.987ZM375.893 17.987H373.893V19.987H375.893V17.987ZM375.893 1.7V-0.300004H373.893V1.7H375.893ZM433.031 1.7H435.031V-0.300004H433.031V1.7ZM433.031 17.987V19.987H435.031V17.987H433.031ZM410.247 17.987L408.833 16.5728L405.418 19.987H410.247V17.987ZM414.786 13.448H416.786V8.61957L413.372 12.0338L414.786 13.448ZM414.786 64V66H416.786V64H414.786ZM396.138 64V13.448H392.138V64H396.138ZM392.724 14.8622L397.263 19.4012L400.091 16.5728L395.552 12.0338L392.724 14.8622ZM398.677 15.987H375.893V19.987H398.677V15.987ZM377.893 17.987V1.7H373.893V17.987H377.893ZM375.893 3.7H433.031V-0.300004H375.893V3.7ZM431.031 1.7V17.987H435.031V1.7H431.031ZM433.031 15.987H410.247V19.987H433.031V15.987ZM411.661 19.4012L416.2 14.8622L413.372 12.0338L408.833 16.5728L411.661 19.4012ZM412.786 13.448V64H416.786V13.448H412.786ZM414.786 62H394.138V66H414.786V62ZM461.16 63.021L460.458 64.8937L460.467 64.8968L461.16 63.021ZM450.035 56.257L448.663 57.7118L448.67 57.7187L448.678 57.7255L450.035 56.257ZM442.648 45.844L440.813 46.6384L440.818 46.6499L440.823 46.6613L442.648 45.844ZM442.648 19.856L440.823 19.0386L440.817 19.0515L442.648 19.856ZM450.035 9.532L451.393 11.0005L451.4 10.9937L451.408 10.9868L450.035 9.532ZM461.16 2.679L460.467 0.803173L460.458 0.80634L461.16 2.679ZM489.284 2.679L488.582 4.55166L488.582 4.55166L489.284 2.679ZM500.409 9.532L499.037 10.9868L499.044 10.9937L499.052 11.0005L500.409 9.532ZM507.707 19.856L505.872 20.6504L505.879 20.6671L505.887 20.6836L507.707 19.856ZM507.707 45.844L505.882 45.0267L505.877 45.0381L505.872 45.0496L507.707 45.844ZM500.409 56.257L501.767 57.7255L501.774 57.7187L501.782 57.7118L500.409 56.257ZM489.284 63.021L489.987 64.8937L489.987 64.8937L489.284 63.021ZM480.651 47.357L479.887 45.509L479.875 45.5138L479.863 45.5187L480.651 47.357ZM485.101 44.331L483.656 42.9486L483.655 42.95L485.101 44.331ZM488.127 39.436L490 40.1382L490.003 40.1289L490.007 40.1195L488.127 39.436ZM488.127 26.353L486.248 27.0365L486.251 27.0459L486.255 27.0552L488.127 26.353ZM485.101 21.458L483.624 22.8065L483.655 22.8401L483.687 22.8722L485.101 21.458ZM480.651 18.343L479.863 20.1813L479.875 20.1862L479.887 20.191L480.651 18.343ZM469.704 18.343L468.94 16.495L468.928 16.4998L468.916 16.5047L469.704 18.343ZM465.254 21.458L463.809 20.0756L463.808 20.077L465.254 21.458ZM462.317 26.353L464.19 27.0552L464.193 27.0459L464.197 27.0365L462.317 26.353ZM462.317 39.436L460.438 40.1195L460.441 40.1289L460.445 40.1382L462.317 39.436ZM465.254 44.331L463.777 45.6795L463.808 45.7131L463.84 45.7452L465.254 44.331ZM469.704 47.357L468.916 49.1953L468.928 49.2002L468.94 49.205L469.704 47.357ZM475.222 63.424C470.394 63.424 465.944 62.6578 461.854 61.1452L460.467 64.8968C465.04 66.5882 469.964 67.424 475.222 67.424V63.424ZM461.863 61.1483C457.817 59.6313 454.335 57.5086 451.393 54.7885L448.678 57.7255C452.025 60.82 455.96 63.2067 460.458 64.8937L461.863 61.1483ZM451.408 54.8022C448.456 52.0175 446.147 48.7636 444.474 45.0267L440.823 46.6613C442.71 50.875 445.325 54.5631 448.663 57.7118L451.408 54.8022ZM444.484 45.0496C442.88 41.345 442.067 37.2867 442.067 32.85H438.067C438.067 37.7879 438.975 42.3923 440.813 46.6384L444.484 45.0496ZM442.067 32.85C442.067 28.3498 442.882 24.2964 444.479 20.6605L440.817 19.0515C438.974 23.2476 438.067 27.8569 438.067 32.85H442.067ZM444.474 20.6733C446.145 16.9401 448.45 13.7214 451.393 11.0005L448.678 8.06345C445.331 11.1572 442.711 14.8212 440.823 19.0387L444.474 20.6733ZM451.408 10.9868C454.348 8.21256 457.826 6.06555 461.863 4.55166L460.458 0.80634C455.951 2.49644 452.012 4.9181 448.663 8.07721L451.408 10.9868ZM461.854 4.55481C465.944 3.04219 470.394 2.276 475.222 2.276V-1.724C469.964 -1.724 465.04 -0.888192 460.467 0.803192L461.854 4.55481ZM475.222 2.276C480.113 2.276 484.56 3.04324 488.582 4.55166L489.987 0.806341C485.465 -0.889242 480.537 -1.724 475.222 -1.724V2.276ZM488.582 4.55166C492.619 6.06555 496.096 8.21256 499.037 10.9868L501.782 8.07721C498.433 4.9181 494.494 2.49644 489.987 0.80634L488.582 4.55166ZM499.052 11.0005C501.989 13.7167 504.261 16.9276 505.872 20.6504L509.543 19.0616C507.713 14.8337 505.119 11.162 501.767 8.06345L499.052 11.0005ZM505.887 20.6836C507.537 24.3139 508.377 28.359 508.377 32.85H512.377C512.377 27.8476 511.438 23.2301 509.528 19.0284L505.887 20.6836ZM508.377 32.85C508.377 37.2774 507.538 41.3276 505.882 45.0267L509.533 46.6613C511.436 42.4097 512.377 37.7973 512.377 32.85H508.377ZM505.872 45.0496C504.259 48.7761 501.984 52.0223 499.037 54.8022L501.782 57.7118C505.124 54.5584 507.714 50.8625 509.543 46.6384L505.872 45.0496ZM499.052 54.7885C496.109 57.5086 492.628 59.6313 488.582 61.1483L489.987 64.8937C494.485 63.2067 498.42 60.82 501.767 57.7255L499.052 54.7885ZM488.582 61.1483C484.56 62.6568 480.113 63.424 475.222 63.424V67.424C480.537 67.424 485.465 66.5892 489.987 64.8937L488.582 61.1483ZM475.222 50.425C477.428 50.425 479.509 50.0226 481.439 49.1953L479.863 45.5187C478.471 46.1154 476.932 46.425 475.222 46.425V50.425ZM481.416 49.205C483.386 48.39 485.104 47.2253 486.548 45.712L483.655 42.95C482.607 44.0474 481.358 44.9 479.887 45.509L481.416 49.205ZM486.547 45.7134C488.052 44.1392 489.2 42.2713 490 40.1382L486.255 38.7337C485.631 40.398 484.761 41.7935 483.656 42.9486L486.547 45.7134ZM490.007 40.1195C490.811 37.9091 491.195 35.4775 491.195 32.85H487.195C487.195 35.0879 486.868 37.0469 486.248 38.7525L490.007 40.1195ZM491.195 32.85C491.195 30.2241 490.811 27.8138 490 25.6508L486.255 27.0552C486.868 28.6895 487.195 30.6105 487.195 32.85H491.195ZM490.007 25.6695C489.208 23.4723 488.053 21.5809 486.516 20.0438L483.687 22.8722C484.761 23.9458 485.623 25.3177 486.248 27.0365L490.007 25.6695ZM486.578 20.1095C485.133 18.5263 483.406 17.3183 481.416 16.495L479.887 20.191C481.338 20.7917 482.578 21.6603 483.624 22.8065L486.578 20.1095ZM481.439 16.5047C479.509 15.6774 477.428 15.275 475.222 15.275V19.275C476.932 19.275 478.471 19.5846 479.863 20.1813L481.439 16.5047ZM475.222 15.275C473.016 15.275 470.915 15.6775 468.94 16.495L470.469 20.191C471.935 19.5845 473.513 19.275 475.222 19.275V15.275ZM468.916 16.5047C466.996 17.3276 465.292 18.5251 463.809 20.0756L466.7 22.8404C467.827 21.6616 469.09 20.7824 470.492 20.1813L468.916 16.5047ZM463.808 20.077C462.343 21.611 461.23 23.4915 460.438 25.6695L464.197 27.0365C464.829 25.2985 465.673 23.9156 466.701 22.839L463.808 20.077ZM460.445 25.6508C459.634 27.8138 459.249 30.2241 459.249 32.85H463.249C463.249 30.6105 463.577 28.6895 464.19 27.0552L460.445 25.6508ZM459.249 32.85C459.249 35.4775 459.634 37.9091 460.438 40.1195L464.197 38.7525C463.577 37.0469 463.249 35.0879 463.249 32.85H459.249ZM460.445 40.1382C461.237 42.2523 462.343 44.1091 463.777 45.6795L466.731 42.9825C465.673 41.8236 464.821 40.417 464.19 38.7337L460.445 40.1382ZM463.84 45.7452C465.321 47.2265 467.016 48.3809 468.916 49.1953L470.492 45.5187C469.07 44.9091 467.798 44.0461 466.669 42.9168L463.84 45.7452ZM468.94 49.205C470.915 50.0225 473.016 50.425 475.222 50.425V46.425C473.513 46.425 471.935 46.1155 470.469 45.509L468.94 49.205ZM522.387 64H520.387V66H522.387V64ZM522.387 1.7V-0.300004H520.387V1.7H522.387ZM571.871 5.972L570.751 7.62892L570.761 7.6361L571.871 5.972ZM572.405 30.002L573.597 31.6078L573.605 31.602L573.612 31.5962L572.405 30.002ZM556.563 34.363L554.687 33.6684L553.689 36.363H556.563V34.363ZM558.343 29.557V27.557H556.951L556.467 28.8624L558.343 29.557ZM574.986 33.74L576.123 32.0947L576.123 32.0947L574.986 33.74ZM543.035 49.315H541.035V51.315H543.035V49.315ZM558.521 48.069L559.935 49.4832L559.935 49.4832L558.521 48.069ZM558.521 40.771L557.107 42.1852L557.157 42.2357L557.211 42.2824L558.521 40.771ZM543.035 39.525V37.525H541.035V39.525H543.035ZM543.035 25.641H541.035V27.641H543.035V25.641ZM555.851 24.484L554.49 23.0184L554.49 23.0184L555.851 24.484ZM555.851 17.631L554.437 19.0452L554.463 19.0714L554.49 19.0966L555.851 17.631ZM543.035 16.385V14.385H541.035V16.385H543.035ZM524.387 64V1.7H520.387V64H524.387ZM522.387 3.7H553.982V-0.300004H522.387V3.7ZM553.982 3.7C561.489 3.7 566.999 5.0925 570.751 7.62888L572.991 4.31511C568.317 1.15549 561.901 -0.300004 553.982 -0.300004V3.7ZM570.761 7.6361C574.473 10.1108 576.279 13.4893 576.279 17.987H580.279C580.279 12.1607 577.812 7.52924 572.98 4.3079L570.761 7.6361ZM576.279 17.987C576.279 22.4237 574.599 25.8309 571.197 28.4078L573.612 31.5962C578.043 28.2398 580.279 23.6369 580.279 17.987H576.279ZM571.213 28.3962C567.747 30.9692 562.932 32.363 556.563 32.363V36.363C563.484 36.363 569.231 34.8495 573.597 31.6078L571.213 28.3962ZM558.438 35.0576L560.218 30.2516L556.467 28.8624L554.687 33.6684L558.438 35.0576ZM558.343 31.557C565.168 31.557 570.266 32.9087 573.849 35.3853L576.123 32.0947C571.637 28.994 565.639 27.557 558.343 27.557V31.557ZM573.849 35.3853C577.289 37.7631 579.038 41.1813 579.038 45.933H583.038C583.038 40.0047 580.752 35.2942 576.123 32.0947L573.849 35.3853ZM579.038 45.933C579.038 50.8249 577.137 54.6177 573.259 57.4998L575.645 60.7102C580.548 57.0657 583.038 52.0771 583.038 45.933H579.038ZM573.259 57.4998C569.344 60.4092 563.571 62 555.673 62V66C564.032 66 570.778 64.3275 575.645 60.7102L573.259 57.4998ZM555.673 62H522.387V66H555.673V62ZM543.035 51.315H554.694V47.315H543.035V51.315ZM554.694 51.315C556.699 51.315 558.585 50.8329 559.935 49.4832L557.107 46.6548C556.795 46.9664 556.13 47.315 554.694 47.315V51.315ZM559.935 49.4832C561.295 48.1229 561.856 46.3115 561.856 44.331H557.856C557.856 45.5545 557.526 46.2351 557.107 46.6548L559.935 49.4832ZM561.856 44.331C561.856 42.3683 561.301 40.5341 559.831 39.2596L557.211 42.2824C557.52 42.5505 557.856 43.0897 557.856 44.331H561.856ZM559.935 39.3568C558.585 38.0071 556.699 37.525 554.694 37.525V41.525C556.13 41.525 556.795 41.8736 557.107 42.1852L559.935 39.3568ZM554.694 37.525H543.035V41.525H554.694V37.525ZM541.035 39.525V49.315H545.035V39.525H541.035ZM543.035 27.641H551.935V23.641H543.035V27.641ZM551.935 27.641C553.943 27.641 555.849 27.2149 557.212 25.9496L554.49 23.0184C554.191 23.2958 553.486 23.641 551.935 23.641V27.641ZM557.212 25.9496C558.566 24.6923 559.097 22.9609 559.097 21.102H555.097C555.097 22.2098 554.797 22.733 554.49 23.0184L557.212 25.9496ZM559.097 21.102C559.097 19.2115 558.581 17.4368 557.212 16.1654L554.49 19.0966C554.782 19.3679 555.097 19.9072 555.097 21.102H559.097ZM557.265 16.2168C555.904 14.8561 553.976 14.385 551.935 14.385V18.385C553.453 18.385 554.136 18.7445 554.437 19.0452L557.265 16.2168ZM551.935 14.385H543.035V18.385H551.935V14.385ZM541.035 16.385V25.641H545.035V16.385H541.035Z" fill="white"/>
</svg>
