<svg width="97" height="95" viewBox="0 0 97 95" fill="none" xmlns="http://www.w3.org/2000/svg">
<path d="M47.7206 1.11849C48.0196 0.614587 48.7491 0.614589 49.0481 1.11849L59.8862 19.3825C60.0619 19.6785 60.4123 19.8224 60.7453 19.7353L81.7441 14.2423C82.3203 14.0916 82.8429 14.6227 82.6829 15.1964L77.0319 35.4543C76.9361 35.798 77.0883 36.1626 77.4001 36.3361L96.1883 46.7912C96.717 47.0854 96.717 47.8458 96.1883 48.14L77.4001 58.5951C77.0883 58.7686 76.9361 59.1332 77.0319 59.4769L82.6829 79.7348C82.8429 80.3085 82.3203 80.8396 81.7441 80.6889L60.7453 75.1959C60.4123 75.1088 60.0619 75.2527 59.8862 75.5487L49.0481 93.8127C48.7491 94.3166 48.0196 94.3166 47.7206 93.8127L36.8825 75.5487C36.7069 75.2527 36.3564 75.1088 36.0235 75.1959L15.0246 80.6889C14.4484 80.8396 13.9258 80.3085 14.0859 79.7348L19.7368 59.4769C19.8326 59.1332 19.6804 58.7686 19.3686 58.5951L0.580409 48.14C0.0517316 47.8458 0.051733 47.0854 0.58041 46.7912L19.3686 36.3361C19.6804 36.1626 19.8326 35.798 19.7368 35.4543L14.0859 15.1964C13.9258 14.6227 14.4484 14.0916 15.0246 14.2423L36.0235 19.7353C36.3564 19.8224 36.7069 19.6785 36.8825 19.3825L47.7206 1.11849Z" fill="#268186"/>
</svg>
