<svg xmlns="http://www.w3.org/2000/svg" width="17" height="17" viewBox="0 0 17 17"><g><g><path fill="#ff0036" d="M10.763 13.215c.03 2.021-2.052 3.783-5.387 3.783-2.927 0-5.38-1.326-5.38-3.225 0-2.865 2.031-3.79 4.958-3.79.32 0 .611-.01.914-.01-.4-.385-.724-.721-.724-1.306 0-.35.11-.682.267-.98-.158.011-.321.021-.488.021-2.404 0-3.804-1.683-3.804-3.793 0-2.068 2.13-3.92 4.686-3.92h5.037L9.717 1.149H8.394c.934.532 1.43 1.628 1.43 2.837 0 1.11-.617 2.003-1.488 2.682-.851.664-1.012.94-1.012 1.503 0 .48 1.016 1.195 1.483 1.544 1.626 1.216 1.933 1.982 1.956 3.5zm-4.866-6.35c1.288.037 2.028-.996 1.807-2.675-.222-1.678-1.061-2.94-2.349-2.98-1.288-.036-2.418 1.133-2.194 2.811.222 1.68 1.447 2.805 2.736 2.844zm3.026 6.528c0-.16-.005-.324-.061-.472-.645-1.605-2.723-1.605-3.416-1.605-1.863 0-3.403.697-3.403 2.01 0 1.338 1.374 2.43 3.275 2.43 2.673 0 3.605-1.021 3.605-2.363zm8.072-10.167h-2.423v2.436h-.805V3.226h-2.42v-.798h2.42v-2.43h.805v2.43h2.423z"/></g></g></svg>