<svg width="36" height="36" viewBox="0 0 36 36" fill="none" xmlns="http://www.w3.org/2000/svg">
<path d="M36 17.9999C36 22.8078 34.1277 27.3276 30.7279 30.7279C27.329 34.1268 22.8093 35.9991 18.0022 35.9999H18C13.1921 35.9999 8.67151 34.1276 5.27206 30.7279C1.87234 27.3276 0 22.8078 0 17.9999C0 13.192 1.87234 8.67145 5.27206 5.272C8.67151 1.87228 13.1921 -6.10352e-05 18 -6.10352e-05H18.0022C22.8093 0.000762943 27.329 1.87311 30.7279 5.272C34.1277 8.67145 36 13.192 36 17.9999Z" fill="#FF7236"/>
<path d="M24.8034 15.5245C21.8389 17.2247 22.3438 22.1874 25.5593 22.1874C26.9462 22.1874 28.1464 21.1448 28.6808 19.8119C29.915 16.7336 27.3485 14.0643 24.8034 15.5245Z" fill="#FFFEFD"/>
<path d="M21.7585 16.1391C25.3153 16.1391 26.3803 10.0992 23.0011 9.10618C21.4616 8.65392 19.7109 9.73911 19.1486 11.7228C18.5177 13.9463 19.7589 16.1391 21.7585 16.1391Z" fill="#FFFEFD"/>
<path d="M20.8435 26.8902C20.3495 26.7537 19.4729 26.6657 18.5552 26.653C17.5853 26.6388 16.5697 26.7083 15.9127 26.8902C14.138 27.3846 11.7232 26.1885 12.2531 23.7044C12.7431 21.408 14.504 21.5388 14.9204 19.3624C15.3399 17.1629 16.9704 16.1014 18.5552 16.1844C20.0221 16.2614 21.4497 17.3192 21.8387 19.3629C22.2526 21.5408 24.0098 21.4087 24.4992 23.7044C25.031 26.1905 22.6111 27.3801 20.8435 26.8902Z" fill="#FFFEFD"/>
<path d="M15.4988 16.1393C16.5049 16.1393 17.369 15.5549 17.8491 14.6606C19.2764 12.0013 16.9322 8.31994 14.256 9.10835C10.871 10.1041 11.944 16.1393 15.4988 16.1393Z" fill="#FFFEFD"/>
<path d="M13.8909 20.2099C15.033 17.4156 12.3259 14.0023 9.74052 15.0763C6.62626 16.3698 7.99979 21.9487 11.424 21.9487C12.523 21.9487 13.4568 21.2722 13.8909 20.2099Z" fill="#FFFEFD"/>
<path d="M20.8439 26.8902C20.3499 26.7536 19.4733 26.6657 18.5557 26.6529V16.1843C20.0225 16.2613 21.4501 17.3191 21.8391 19.3629C22.2531 21.5407 24.0103 21.4087 24.4996 23.7044C25.0314 26.1905 22.6115 27.3801 20.8439 26.8902Z" fill="#FFFEFD"/>
</svg>
